<?xml version="1.0" encoding="utf-8"?>
<!-- Generator: Adobe Illustrator 24.1.2, SVG Export Plug-In . SVG Version: 6.00 Build 0)  -->
<svg version="1.1" id="Слой_1" xmlns="http://www.w3.org/2000/svg" xmlns:xlink="http://www.w3.org/1999/xlink" x="0px" y="0px"
	 viewBox="0 0 750.8 127.77" style="enable-background:new 0 0 750.8 127.77;" xml:space="preserve">
<style type="text/css">
	.st0{fill:#FFFFFF;}
</style>
<g>
	<path class="st0" d="M437.78,122.29c-1.95,1.58-4.73,2.89-8.33,3.92c-3.6,1.03-6.8,1.55-9.61,1.55c-10.98,0-19.62-2.77-25.9-8.31
		c-6.29-5.54-9.43-13.42-9.43-23.64v-41.8h-11.9V35.78h11.9V14.55l23.62-3.96v25.19h16.11l0.23,18.09l-16.34,0.16v37.6
		c0,4.63,1.1,8.43,3.3,11.41c2.2,2.98,5.43,4.47,9.7,4.47c1.58,0,3.17-0.18,4.76-0.55c1.58-0.36,3.23-0.97,4.94-1.83L437.78,122.29z
		"/>
	<path class="st0" d="M527.3,49.65c3.78-4.26,8.82-7.63,15.1-10.13c6.28-2.49,11.93-3.74,16.93-3.74c12.08,0,20.65,3.53,25.72,10.59
		c5.06,7.06,7.6,15.7,7.6,25.92v55.49h-23.98V73.38c0-5.6-1.34-9.89-4.03-12.87c-2.69-2.98-6.59-4.47-11.72-4.47
		c-3.42,0-7.02,0.91-10.8,2.74c-3.78,1.83-7.2,3.9-10.25,6.21c0.12,1.22,0.24,2.44,0.37,3.65c0.12,1.22,0.18,2.44,0.18,3.65v55.49
		h-23.98V73.38c0-5.6-1.34-9.89-4.03-12.87c-2.69-2.98-6.53-4.47-11.53-4.47c-3.05,0-6.13,0.64-9.24,1.92s-6.07,2.89-8.88,4.84
		v64.98h-23.8l0-88.03l23.99-3.96v7.23c3.05-2.19,4.3-2.73,8.87-4.22c5.72-1.87,10.77-3.01,15.29-3.01c6.96,0,12.75,1.25,17.39,3.74
		C521.14,42.01,524.74,45.39,527.3,49.65z"/>
	<path class="st0" d="M626.33,0c3.78,0,6.99,1.28,9.61,3.83c2.62,2.56,3.94,5.72,3.94,9.49c0,3.77-1.31,6.94-3.94,9.49
		c-2.63,2.56-5.83,3.83-9.61,3.83c-3.66,0-6.77-1.28-9.34-3.83c-2.56-2.56-3.84-5.72-3.84-9.49c0-3.77,1.28-6.94,3.84-9.49
		C619.56,1.28,622.67,0,626.33,0z M638.23,35.78l0,91.99h-23.8l0-91.99H638.23z"/>
	<path class="st0" d="M651.05,127.77l33.5-44.9L651.8,35.78h23.92l24.03,31.94l25.05-31.94h26.01l-38.02,48.21l32.36,43.79h-26.18
		l-20.46-26.95l-21.09,26.95H651.05z"/>
	<path class="st0" d="M187.85,81.41c0-27.01,19.59-46.18,46.86-46.18c18.12,0,29.11,7.85,34.96,15.88l-15.19,14.24
		c-4.21-6.21-10.62-9.49-18.67-9.49c-14.1,0-23.98,10.22-23.98,25.55s9.89,25.74,23.98,25.74c8.05,0,14.46-3.65,18.67-9.49
		l15.19,14.05c-5.86,8.21-16.84,16.06-34.96,16.06C207.44,127.77,187.85,108.6,187.85,81.41z"/>
	<path class="st0" d="M279.2,81.41c0-25.55,18.86-46.18,45.76-46.18c26.36,0,44.3,19.71,44.3,48.55v5.11h-65.72
		c1.46,11.13,10.43,20.44,25.45,20.44c7.51,0,17.94-3.28,23.61-8.76l10.25,14.97c-8.79,8.03-22.7,12.23-36.43,12.23
		C299.51,127.77,279.2,109.7,279.2,81.41z M324.96,53.66c-14.46,0-20.69,10.77-21.78,19.53h43.57
		C346.19,64.8,340.34,53.66,324.96,53.66z"/>
</g>
<path class="st0" d="M92.09,91.92c0.55,0.28,0.66,1.04,0.21,1.46c-3.1,2.84-6.57,5.24-10.28,7.12c-6.56,3.23-13.83,4.82-21.01,4.67
	c-7.19-0.25-14.26-2.2-20.42-5.69c-6.12-3.53-11.32-8.51-15.06-14.36c-3.69-5.9-5.84-12.64-6.37-19.44
	c-0.4-6.81,0.78-13.66,3.53-19.79c1.45-3.03,3.14-5.92,5.19-8.55c2.07-2.61,4.46-4.95,7.06-6.98c5.24-4.04,11.43-6.69,17.84-7.77
	c-6.32,1.54-12.19,4.61-16.94,8.86c-2.36,2.13-4.46,4.54-6.24,7.14c-1.76,2.63-3.14,5.46-4.28,8.37
	c-2.13,5.87-2.72,12.21-1.91,18.27c0.93,6.06,3.27,11.85,6.83,16.7c3.61,4.81,8.36,8.69,13.68,11.28
	c5.35,2.53,11.25,3.65,17.04,3.45c5.79-0.32,11.44-2.02,16.34-4.89c1.94-1.18,3.75-2.54,5.42-4.04c0.28-0.25,0.68-0.31,1.01-0.13
	L92.09,91.92z"/>
<path class="st0" d="M110.15,107.86c0.37,0.43,0.32,1.07-0.09,1.45c-0.2,0.19-0.41,0.38-0.61,0.56c-2.58,2.32-5.38,4.44-8.29,6.35
	c-2.9,1.92-5.99,3.54-9.15,4.96c-3.16,1.43-6.43,2.58-9.77,3.47c-13.32,3.64-27.66,2.92-40.39-1.87
	c-12.75-4.77-23.75-13.54-31.17-24.66C3.23,87.01-0.45,73.66,0.04,60.55c0.45-13.1,5.19-25.92,13.17-36.06
	C21.14,14.31,32.26,6.74,44.49,3.25c12.21-3.54,25.42-3.21,37.2,1c5.88,2.1,11.42,5.08,16.32,8.83c4.94,3.72,9.24,8.23,12.74,13.26
	c-3.79-4.81-8.29-9.03-13.36-12.41c-5.02-3.42-10.59-5.99-16.36-7.69C69.46,2.86,56.94,3.32,45.79,7.27
	c-11.19,3.9-20.88,11.42-27.47,20.97c-6.64,9.53-10.1,21.04-9.82,32.41c0.24,11.37,4.1,22.51,10.82,31.42
	c6.71,8.9,16.24,15.55,26.69,18.78c10.45,3.27,21.83,3.12,32.02-0.31c8.14-2.71,15.45-7.42,21.18-13.57
	c0.4-0.43,1.07-0.47,1.49-0.06c0.64,0.62,1.25,1.27,1.82,1.95C102.51,98.85,108.21,105.58,110.15,107.86z"/>
<path class="st0" d="M149.97,38.96l-35.86,43.7l1.97,4.13l4.13,8.63c0.72,1.53,0.39,3.35-0.85,4.5l-2.87,2.71
	c-0.18,0.17-0.42,0.22-0.65,0.16c-0.09-0.02-0.19-0.07-0.26-0.16c-0.03-0.02-0.06-0.04-0.08-0.07l-7.95-9.41
	c-0.78-0.92-1.61-1.8-2.49-2.61c-0.66-0.64-1.35-1.24-2.06-1.8c-1.43-1.14-2.95-2.16-4.56-3.02c-0.25-0.15-0.5-0.29-0.76-0.42
	l-9.29-4.77l-1.68-0.87c-0.35-0.18-0.47-0.62-0.28-0.96l2-3.39c0.86-1.46,2.56-2.2,4.22-1.83l13.83,3.11L120.5,58.5L91.59,45.85
	c-0.4-0.18-0.54-0.7-0.26-1.05l4.47-5.58c1.85-2.32,4.81-3.44,7.73-2.96l30.29,5.08l7.5-9.65c1.69-2.17,3.89-3.89,6.41-5l3.49-1.53
	c0.48-0.22,0.98-0.24,1.43-0.12c0.26,0.07,0.5,0.18,0.7,0.33l0.04,0.03c0.54,0.45,0.88,1.17,0.73,1.99l-0.58,3.67
	C153.06,33.97,151.83,36.7,149.97,38.96z"/>
<g>
	<path class="st0" d="M155.34,77.95l-4.47,5.58c-0.17,0.22-0.46,0.3-0.71,0.23c-0.15-0.04-0.28-0.12-0.38-0.25l-17.3-23.31
		l13.39-16.22l10.63,25.79C157.64,72.52,157.19,75.64,155.34,77.95z"/>
</g>
</svg>
