<?xml version="1.0" encoding="utf-8"?>
<!-- Generator: Adobe Illustrator 24.1.2, SVG Export Plug-In . SVG Version: 6.00 Build 0)  -->
<svg version="1.1" id="Слой_1" xmlns="http://www.w3.org/2000/svg" xmlns:xlink="http://www.w3.org/1999/xlink" x="0px" y="0px"
	 viewBox="0 0 200 200" style="enable-background:new 0 0 200 200;" xml:space="preserve">
<style type="text/css">
	.st0{fill:#85A1AA;}
	.st1{fill:#29A1DC;}
	.st2{fill:#D6E7F0;}
	.st3{fill:#6BC3EE;}
	.st4{fill:#476B7D;}
	.st5{fill:#F5F6F7;}
	.st6{fill:#87D3F9;}
	.st7{fill:#4A6370;}
	.st8{fill:#97DDFF;}
	.st9{fill:#FFFFFF;}
</style>
<path class="st0" d="M135.4,49.6v103c0,3.5-2.7,6.4-6,6.4c0,0,0,0,0,0H50.1c-3.4,0-6.1-2.9-6-6.4c0,0,0,0,0,0v-103
	c0-3.5,2.7-6.4,6-6.4c0,0,0,0,0,0h79.2C132.7,43.2,135.4,46.1,135.4,49.6z"/>
<path class="st1" d="M139,80.7h-6.3V54.6h6.3c1.1,0,1.9,0.9,1.9,1.9v22.2C140.9,79.8,140.1,80.7,139,80.7z M139,113h-6.3V87h6.3
	c1.1,0,1.9,0.9,1.9,1.9v22.2C140.9,112.2,140.1,113,139,113z M139,145.4h-6.3v-26.1h6.3c1.1,0,1.9,0.9,1.9,1.9v22.2
	C140.9,144.5,140.1,145.4,139,145.4z"/>
<path class="st2" d="M132.7,47.8V150c0,3.5-2.6,6.3-5.8,6.4c0,0,0,0,0,0H51c-3.2,0-5.8-2.9-5.8-6.4c0,0,0,0,0,0V47.8
	c0-3.5,2.6-6.3,5.8-6.4c0,0,0,0,0,0h75.8C130.1,41.4,132.7,44.3,132.7,47.8z"/>
<path class="st3" d="M61.7,41.4v114.9H50c-3.5,0-6.4-2.9-6.4-6.4c0,0,0,0,0,0V47.8c0-3.5,2.8-6.3,6.4-6.4c0,0,0,0,0,0H61.7z"/>
<path class="st4" d="M123,130.3H65.4c0.1-2,0.3-7.7,0.6-9.2c1.4-6.8,16.7-10,16.7-10c0.1,0,0.1,0,0.1-0.1l6.4,5.9l1.4-1.1l3.4-2.6
	l3.4,2.6l1.4,1.1l6.4-5.9l0.2,0.1c0,0,15.3,3.2,16.7,10C122.7,122.6,122.9,128.2,123,130.3z"/>
<path class="st5" d="M105.5,111l-6.4,5.9l-1.4-1.1l-3.4-2.6l8.1-4.8c0.1,0.4,0.3,0.8,0.6,1C103.5,110,104.4,110.6,105.5,111z"/>
<path class="st1" d="M90.7,130.3l1.9-11.3l-1.8-3.2l3.4-2.6l3.4,2.6l-1.8,3.2l1.9,11.3H90.7z"/>
<path class="st6" d="M102.3,108.4l-8.1,4.8l-8.1-4.8c0.5-1.6,0.5-4.1,0.5-6c1.2,1.1,2.6,2.2,4.4,3.1c2,1,4.4,1,6.4,0
	c1.8-0.9,3.3-1.9,4.4-3.1C101.8,104.3,101.8,106.8,102.3,108.4z"/>
<path class="st5" d="M94.2,113.2l-3.4,2.6l-1.4,1.1L83,111c1.1-0.4,2-1,2.6-1.6c0.2-0.3,0.4-0.6,0.6-1
	C86.1,108.4,94.2,113.2,94.2,113.2z"/>
<path class="st7" d="M106.6,90.3c-0.8-1.4-2.8-5-3.2-8.2c-5.8,1.3-12,1.2-18.5,0c-0.4,3.2-2.3,6.8-3.2,8.2c-0.2-0.7-2.5-9-0.4-11.7
	C80,78.3,79,78,77.6,78.9c0,0,0.2-7.9,7.9-8.4c0,0-3.2-2.8-3.7-4.2c0,0,6,1.2,13.8,0.1c9.2-1.3,12.8,6.4,12.8,6.4
	C110.7,78.6,106.9,89.6,106.6,90.3z"/>
<path class="st8" d="M101.9,102.4c-1.2,1.2-2.6,2.2-4.4,3.1c-2,1-4.4,1-6.4,0c-1.6-0.8-3.1-1.8-4.4-3.1c-5.3-5.2-4.8-12.1-4.8-12.1
	s0,0,0-0.1c0.8-1.4,2.8-5,3.2-8.2c6.5,1.2,12.6,1.3,18.5,0c0.4,3.2,2.3,6.8,3.2,8.2v0l0,0C106.6,90.3,107.2,97.2,101.9,102.4z"/>
<path class="st9" d="M106.7,90.3C106.7,90.3,106.7,90.3,106.7,90.3z"/>
</svg>
