<?xml version="1.0" encoding="utf-8"?>
<!-- Generator: Adobe Illustrator 24.1.2, SVG Export Plug-In . SVG Version: 6.00 Build 0)  -->
<svg version="1.1" id="Слой_1" xmlns="http://www.w3.org/2000/svg" xmlns:xlink="http://www.w3.org/1999/xlink" x="0px" y="0px"
	 viewBox="0 0 200 200" style="enable-background:new 0 0 200 200;" xml:space="preserve">
<style type="text/css">
	.st0{fill:#99D0EB;}
	.st1{fill:#2E9BD0;}
	.st2{fill:#AFC9D3;}
	.st3{fill:#29A1DC;}
	.st4{fill:#85A1AA;}
	.st5{fill:#FFFFFF;}
</style>
<polygon class="st0" points="164.2,157 164.2,88.9 120.9,125.1 "/>
<polygon class="st1" points="164.4,83.1 150.8,75.1 150.8,94.5 "/>
<path class="st2" d="M104.2,118c-2.7-2-6.2-2-8.9,0l-55.7,41H160L104.2,118z"/>
<polygon class="st0" points="35.4,88.9 35.4,157 78.7,125.1 "/>
<polygon class="st1" points="49,75.1 35.4,83.1 49,94.5 "/>
<path class="st3" d="M81.4,122c0.3,0.2,0.4,0.5,0.6,0.8l11-8.1c4.1-3,9.7-3,13.8,0l11,8.1c0.1-0.3,0.3-0.6,0.6-0.8l26.7-22.3V30.1
	H82.4L82.6,59h-28l0.1,40.7L81.4,122z"/>
<polygon class="st4" points="160,159 39.6,159 46.6,153.8 153,153.8 "/>
<polygon class="st4" points="164.2,88.9 164.2,157 159.2,153.3 159,93.3 "/>
<polyline class="st0" points="54.7,54.5 79.4,54.5 79.4,30.1 "/>
<path class="st5" d="M109.2,51.4c0.3,0,0.7-0.1,0.9-0.4l9.2-9.3c0.3-0.3,0.8-0.5,1.2-0.5c0.1,0,0.3,0,0.4,0.1l2.6,2.6l1.8-1.9
	l-2.6-2.6c-0.6-0.6-1.4-0.9-2.3-0.9c-1.1,0-2.2,0.5-3,1.3l-9.2,9.2c-0.3,0.2-0.4,0.6-0.4,1s0.2,0.7,0.4,0.9
	C108.5,51.3,108.9,51.4,109.2,51.4z M73.4,100.2c-0.3,0.3-0.4,0.6-0.4,1s0.2,0.7,0.4,1c0.6,0.6,1.5,0.6,2,0l1.7-1.8l-2-2
	C75.2,98.4,73.4,100.2,73.4,100.2z M82.5,85.4c-2.3,2.3-4.3,4.9-6,7.8c-0.3,0.4-0.5,0.9-0.7,1.6L75.1,97l3.4,3.4l2-0.6
	c0.6-0.2,1.2-0.4,1.7-0.7c3-1.7,5.7-3.8,8.1-6.2l12-12l-7.6-7.6C94.7,73.2,82.5,85.4,82.5,85.4z M95.4,72.5l7.6,7.6l1.7-1.7
	l-7.6-7.6L95.4,72.5z M97.8,70.1l7.6,7.6l22-22.1l-7.6-7.6L97.8,70.1z M133.5,42c-2.1-2-5.4-2.1-7.4-0.1l-5.6,5.4L128,55l5.5-5.5
	C135.5,47.4,135.5,44.1,133.5,42z"/>
</svg>
