<?xml version="1.0" encoding="utf-8"?>
<!-- Generator: Adobe Illustrator 24.1.2, SVG Export Plug-In . SVG Version: 6.00 Build 0)  -->
<svg version="1.1" id="Слой_1" xmlns="http://www.w3.org/2000/svg" xmlns:xlink="http://www.w3.org/1999/xlink" x="0px" y="0px"
	 viewBox="0 0 200 200" style="enable-background:new 0 0 200 200;" xml:space="preserve">
<style type="text/css">
	.st0{fill:#29A1DC;}
	.st1{fill:#99D0EB;}
	.st2{fill:#ABE3FF;}
	.st3{fill:#AFC9D3;}
	.st4{fill:#85A1AA;}
	.st5{fill:#FFFFFF;}
</style>
<circle class="st0" cx="149.7" cy="135.1" r="35.5"/>
<circle class="st0" cx="149.5" cy="134.9" r="35.7"/>
<path class="st1" d="M124.1,101.5l2.1,2.1c6.7-5,14.9-7.9,23.8-7.9c5.1,0,9.9,1,14.4,2.7V59.6L124.1,101.5z"/>
<polygon class="st1" points="75.8,101.5 35.5,59.6 35.5,141.8 "/>
<path class="st2" d="M99.9,113.6c3.7,0,7.2-1.5,9.8-4.2l9.2-9.6l0,0l0,0L161.1,56H38.8l42.1,43.8l0,0l0,0l9.2,9.6
	C92.7,112.1,96.2,113.6,99.9,113.6z"/>
<path class="st1" d="M160.8,56.3l-42,43.7l0,0l0,0l-9,9.4c-2.6,2.7-6.1,4.2-9.9,4.2s-7.3-1.5-9.9-4.2l-9-9.4L39,56.3h9.2l32.7,34.1
	l9,9.4c2.6,2.7,6.1,4.2,9.9,4.2s7.3-1.5,9.9-4.2l9-9.4l0,0l0,0l32.7-34.1C151.4,56.3,160.8,56.3,160.8,56.3z"/>
<path class="st3" d="M122.3,106.7l-1.7-1.7l-7.5,7.8c-3.5,3.7-8.2,5.7-13.3,5.7c-5.1,0-9.8-2-13.3-5.7L79,105l-40.2,40.2h72.1
	c-0.7-3.1-1.2-6.2-1.2-9.5C109.7,124.3,114.6,114,122.3,106.7z"/>
<path class="st4" d="M39,145.2h72.1c-0.4-1.7-0.7-3.4-0.9-5.1H44.1L39,145.2z"/>
<path class="st4" d="M159.3,64.8v32c1.7,0.4,3.4,0.9,5,1.6V59.6L159.3,64.8z"/>
<path class="st5" d="M154.6,145.6c0.2,0.1,0.3,0.4,0.1,0.6c-1.2,1.1-2.5,2-4,2.7c-2.5,1.2-5.3,1.8-8.1,1.8c-2.8-0.1-5.5-0.8-7.9-2.2
	s-4.4-3.3-5.8-5.5c-1.4-2.3-2.2-4.9-2.5-7.5c-0.2-2.6,0.3-5.3,1.3-7.6c0.6-1.2,1.2-2.3,2-3.3c0.8-1,1.7-1.9,2.7-2.7
	c2-1.5,4.4-2.6,6.9-3c-2.4,0.6-4.7,1.8-6.5,3.4c-0.9,0.8-1.7,1.7-2.4,2.7c-0.7,1-1.2,2.1-1.7,3.2c-0.8,2.3-1,4.7-0.7,7.1
	c0.3,2.4,1.3,4.5,2.6,6.4c1.4,1.8,3.2,3.4,5.3,4.4c2,1,4.4,1.4,6.6,1.3c2.2-0.1,4.4-0.8,6.3-1.9c0.7-0.5,1.5-1,2.1-1.5
	c0.1-0.1,0.3-0.1,0.4,0L154.6,145.6z"/>
<path class="st5" d="M161.6,151.8c0.2,0.2,0.1,0.4,0,0.5c-0.1,0.1-0.2,0.2-0.2,0.2c-1,0.9-2.1,1.7-3.2,2.4s-2.3,1.3-3.5,1.9
	c-1.2,0.5-2.5,1-3.8,1.3c-5.1,1.4-10.7,1.1-15.6-0.7c-4.9-1.8-9.2-5.2-12-9.5c-2.9-4.3-4.2-9.4-4.1-14.5c0.2-5,2-10,5.1-13.9
	c3-3.9,7.3-6.8,12.1-8.2c4.7-1.3,9.8-1.2,14.3,0.4c2.3,0.8,4.4,2,6.3,3.4c1.9,1.4,3.5,3.2,4.9,5.1c-1.5-1.8-3.2-3.5-5.2-4.8
	c-1.9-1.3-4.1-2.3-6.3-3c-4.5-1.3-9.3-1.1-13.6,0.4c-4.3,1.5-8.1,4.4-10.6,8.1c-2.5,3.7-3.9,8.1-3.8,12.5s1.6,8.7,4.2,12.1
	c2.6,3.4,6.3,6,10.3,7.2c4,1.3,8.4,1.2,12.3-0.1c3.1-1,5.9-2.9,8.2-5.2c0.2-0.2,0.4-0.2,0.6,0c0.2,0.2,0.5,0.5,0.7,0.7
	C158.6,148.2,160.8,150.9,161.6,151.8z"/>
<path class="st5" d="M177,125.2L163.1,142l0.8,1.6l1.6,3.3c0.3,0.6,0.2,1.3-0.3,1.7l-1.1,1c-0.1,0.1-0.2,0.1-0.3,0.1
	c0,0-0.1,0-0.1-0.1c0,0,0,0,0,0l-3-3.6c-0.3-0.3-0.6-0.7-1-1c-0.3-0.2-0.5-0.5-0.8-0.7c-0.5-0.4-1.1-0.8-1.8-1.2
	c-0.1-0.1-0.2-0.1-0.3-0.2l-3.6-1.8l-0.7-0.3c-0.1-0.1-0.2-0.2-0.1-0.4l0.8-1.3c0.3-0.6,1-0.8,1.6-0.7l5.3,1.2l5.4-7l-11-4.9
	c-0.2-0.1-0.2-0.3-0.1-0.4l1.7-2.2c0.7-0.9,1.8-1.3,3-1.2l11.7,2l2.9-3.7c0.7-0.8,1.5-1.5,2.5-1.9l1.3-0.6c0.2-0.1,0.4-0.1,0.5,0
	c0.1,0,0.2,0.1,0.3,0.1l0,0c0.2,0.2,0.3,0.5,0.3,0.8l-0.2,1.4C178.1,123.3,177.6,124.3,177,125.2z"/>
<g>
	<path class="st5" d="M178.6,142.5l-1.7,2.2c-0.1,0.1-0.2,0.1-0.3,0.1c0,0-0.1,0-0.2-0.1l-6.7-9l5.2-6.2l4.1,9.9
		C179.5,140.4,179.3,141.6,178.6,142.5z"/>
</g>
</svg>
