<?xml version="1.0" encoding="utf-8"?>
<!-- Generator: Adobe Illustrator 24.1.2, SVG Export Plug-In . SVG Version: 6.00 Build 0)  -->
<svg version="1.1" id="Слой_1" xmlns="http://www.w3.org/2000/svg" xmlns:xlink="http://www.w3.org/1999/xlink" x="0px" y="0px"
	 viewBox="0 0 200 200" style="enable-background:new 0 0 200 200;" xml:space="preserve">
<style type="text/css">
	.st0{fill:#29A1DC;}
	.st1{fill:#99D0EB;}
	.st2{fill:#ABE3FF;}
	.st3{fill:#AFC9D3;}
	.st4{fill:#85A1AA;}
	.st5{fill:#FFFFFF;}
	.st6{fill:none;stroke:#FFFFFF;stroke-width:1.5;stroke-linejoin:round;stroke-miterlimit:10;}
	.st7{fill:none;stroke:#FFFFFF;stroke-width:1.5;stroke-linecap:round;stroke-linejoin:round;stroke-miterlimit:10;}
</style>
<circle class="st0" cx="149.4" cy="135.7" r="35.7"/>
<path class="st1" d="M124.1,101.5l2.1,2.1c6.7-5,14.9-7.9,23.8-7.9c5.1,0,9.9,1,14.4,2.7V59.6L124.1,101.5z"/>
<polygon class="st1" points="75.8,101.5 35.5,59.6 35.5,141.8 "/>
<path class="st2" d="M99.9,113.6c3.7,0,7.2-1.5,9.8-4.2l9.2-9.6l0,0l0,0L161.1,56H38.8l42.1,43.8l0,0l0,0l9.2,9.6
	C92.7,112.1,96.2,113.6,99.9,113.6z"/>
<path class="st1" d="M160.8,56.3l-42,43.7l0,0l0,0l-9,9.4c-2.6,2.7-6.1,4.2-9.9,4.2s-7.3-1.5-9.9-4.2l-9-9.4L39,56.3h9.2l32.7,34.1
	l9,9.4c2.6,2.7,6.1,4.2,9.9,4.2s7.3-1.5,9.9-4.2l9-9.4l0,0l0,0l32.7-34.1C151.4,56.3,160.8,56.3,160.8,56.3z"/>
<path class="st3" d="M122.3,106.7l-1.7-1.7l-7.5,7.8c-3.5,3.7-8.2,5.7-13.3,5.7c-5.1,0-9.8-2-13.3-5.7L79,105l-40.2,40.2h72.1
	c-0.7-3.1-1.2-6.2-1.2-9.5C109.7,124.3,114.6,114,122.3,106.7z"/>
<path class="st4" d="M39,145.2h72.1c-0.4-1.7-0.7-3.4-0.9-5.1H44.1L39,145.2z"/>
<path class="st4" d="M159.3,64.8v32c1.7,0.4,3.4,0.9,5,1.6V59.6L159.3,64.8z"/>
<polygon id="XMLID_1236_" class="st5" points="131.7,117.2 146.4,139 146.4,154.2 151.2,152.1 151.2,139 165.9,117.2 "/>
<polygon id="XMLID_1062_" class="st4" points="163.1,117.2 150.2,139 151.8,139 166.5,117.2 "/>
<polygon id="XMLID_1059_" class="st3" points="140.1,117.2 132.3,117.2 147,139 147,154.2 148.8,152.9 148.8,139 "/>
<polygon id="XMLID_1057_" class="st6" points="151.8,152.1 147,154.2 147,139 151.8,139 "/>
<polygon id="XMLID_1056_" class="st7" points="151.8,139 147,139 132.3,117.2 166.5,117.2 "/>
</svg>
