<?xml version="1.0" encoding="utf-8"?>
<!-- Generator: Adobe Illustrator 24.1.2, SVG Export Plug-In . SVG Version: 6.00 Build 0)  -->
<svg version="1.1" id="Слой_1" xmlns="http://www.w3.org/2000/svg" xmlns:xlink="http://www.w3.org/1999/xlink" x="0px" y="0px"
	 viewBox="0 0 200 200" style="enable-background:new 0 0 200 200;" xml:space="preserve">
<style type="text/css">
	.st0{fill:#99D0EB;}
	.st1{fill:#85A1AA;}
	.st2{fill:#29A1DC;}
	.st3{fill:#ABE3FF;}
	.st4{fill:#AFC9D3;}
	.st5{fill:#FFFFFF;}
	.st6{fill:#2A3673;}
	.st7{enable-background:new    ;}
</style>
<polygon class="st0" points="75.8,101.5 35.5,59.6 35.5,141.8 "/>
<g>
	<path class="st1" d="M53.6,111.9H19.9c-1.1,0-2.1-0.9-2.1-2.1v-15c0-1.1,0.9-2.1,2.1-2.1h33.7c1.1,0,2.1,0.9,2.1,2.1v15
		C55.6,111,54.7,111.9,53.6,111.9z"/>
</g>
<circle class="st2" cx="149.7" cy="135.1" r="35.5"/>
<circle class="st2" cx="149.5" cy="134.9" r="35.7"/>
<path class="st0" d="M124.1,101.5l2.1,2.1c6.7-5,14.9-7.9,23.8-7.9c5.1,0,9.9,1,14.4,2.7V59.6L124.1,101.5z"/>
<path class="st3" d="M99.9,113.6c3.7,0,7.2-1.5,9.8-4.2l9.2-9.6l0,0l0,0L161.1,56H38.8l42.1,43.8l0,0l0,0l9.2,9.6
	C92.7,112.1,96.2,113.6,99.9,113.6z"/>
<path class="st0" d="M160.8,56.3l-42,43.7l0,0l0,0l-9,9.4c-2.6,2.7-6.1,4.2-9.9,4.2s-7.3-1.5-9.9-4.2l-9-9.4L39,56.3h9.2l32.7,34.1
	l9,9.4c2.6,2.7,6.1,4.2,9.9,4.2s7.3-1.5,9.9-4.2l9-9.4l0,0l0,0l32.7-34.1C151.4,56.3,160.8,56.3,160.8,56.3z"/>
<path class="st4" d="M122.3,106.7l-1.7-1.7l-7.5,7.8c-3.5,3.7-8.2,5.7-13.3,5.7c-5.1,0-9.8-2-13.3-5.7L79,105l-40.2,40.2h72.1
	c-0.7-3.1-1.2-6.2-1.2-9.5C109.7,124.3,114.6,114,122.3,106.7z"/>
<path class="st1" d="M39,145.2h72.1c-0.4-1.7-0.7-3.4-0.9-5.1H44.1L39,145.2z"/>
<path class="st1" d="M159.3,64.8v32c1.7,0.4,3.4,0.9,5,1.6V59.6L159.3,64.8z"/>
<path class="st5" d="M154.6,145.6c0.2,0.1,0.3,0.4,0.1,0.6c-1.2,1.1-2.5,2-4,2.7c-2.5,1.2-5.3,1.8-8.1,1.8c-2.8-0.1-5.5-0.8-7.9-2.2
	s-4.4-3.3-5.8-5.5c-1.4-2.3-2.2-4.9-2.5-7.5c-0.2-2.6,0.3-5.3,1.3-7.6c0.6-1.2,1.2-2.3,2-3.3s1.7-1.9,2.7-2.7c2-1.5,4.4-2.6,6.9-3
	c-2.4,0.6-4.7,1.8-6.5,3.4c-0.9,0.8-1.7,1.7-2.4,2.7s-1.2,2.1-1.7,3.2c-0.8,2.3-1,4.7-0.7,7.1c0.3,2.4,1.3,4.5,2.6,6.4
	c1.4,1.8,3.2,3.4,5.3,4.4c2,1,4.4,1.4,6.6,1.3c2.2-0.1,4.4-0.8,6.3-1.9c0.7-0.5,1.5-1,2.1-1.5c0.1-0.1,0.3-0.1,0.4,0L154.6,145.6z"
	/>
<path class="st5" d="M161.6,151.8c0.2,0.2,0.1,0.4,0,0.5s-0.2,0.2-0.2,0.2c-1,0.9-2.1,1.7-3.2,2.4s-2.3,1.3-3.5,1.9
	c-1.2,0.5-2.5,1-3.8,1.3c-5.1,1.4-10.7,1.1-15.6-0.7c-4.9-1.8-9.2-5.2-12-9.5c-2.9-4.3-4.2-9.4-4.1-14.5c0.2-5,2-10,5.1-13.9
	c3-3.9,7.3-6.8,12.1-8.2c4.7-1.3,9.8-1.2,14.3,0.4c2.3,0.8,4.4,2,6.3,3.4c1.9,1.4,3.5,3.2,4.9,5.1c-1.5-1.8-3.2-3.5-5.2-4.8
	c-1.9-1.3-4.1-2.3-6.3-3c-4.5-1.3-9.3-1.1-13.6,0.4s-8.1,4.4-10.6,8.1c-2.5,3.7-3.9,8.1-3.8,12.5s1.6,8.7,4.2,12.1
	c2.6,3.4,6.3,6,10.3,7.2c4,1.3,8.4,1.2,12.3-0.1c3.1-1,5.9-2.9,8.2-5.2c0.2-0.2,0.4-0.2,0.6,0c0.2,0.2,0.5,0.5,0.7,0.7
	C158.6,148.2,160.8,150.9,161.6,151.8z"/>
<path class="st5" d="M177,125.2L163.1,142l0.8,1.6l1.6,3.3c0.3,0.6,0.2,1.3-0.3,1.7l-1.1,1c-0.1,0.1-0.2,0.1-0.3,0.1
	c0,0-0.1,0-0.1-0.1l0,0l-3-3.6c-0.3-0.3-0.6-0.7-1-1c-0.3-0.2-0.5-0.5-0.8-0.7c-0.5-0.4-1.1-0.8-1.8-1.2c-0.1-0.1-0.2-0.1-0.3-0.2
	l-3.6-1.8l-0.7-0.3c-0.1-0.1-0.2-0.2-0.1-0.4l0.8-1.3c0.3-0.6,1-0.8,1.6-0.7l5.3,1.2l5.4-7l-11-4.9c-0.2-0.1-0.2-0.3-0.1-0.4
	l1.7-2.2c0.7-0.9,1.8-1.3,3-1.2l11.7,2l2.9-3.7c0.7-0.8,1.5-1.5,2.5-1.9l1.3-0.6c0.2-0.1,0.4-0.1,0.5,0c0.1,0,0.2,0.1,0.3,0.1l0,0
	c0.2,0.2,0.3,0.5,0.3,0.8l-0.2,1.4C178.1,123.3,177.6,124.3,177,125.2z"/>
<g>
	<path class="st5" d="M178.6,142.5l-1.7,2.2c-0.1,0.1-0.2,0.1-0.3,0.1c0,0-0.1,0-0.2-0.1l-6.7-9l5.2-6.2l4.1,9.9
		C179.5,140.4,179.3,141.6,178.6,142.5z"/>
</g>
<g>
	<path class="st6" d="M51.7,110.3H18c-1.1,0-2.1-0.9-2.1-2.1v-15c0-1.1,0.9-2.1,2.1-2.1h33.7c1.1,0,2.1,0.9,2.1,2.1v15
		C53.7,109.4,52.8,110.3,51.7,110.3z"/>
</g>
<g class="st7">
	<path class="st5" d="M22.9,104.9v-9.3h3.5c0.6,0,1.1,0,1.4,0.1c0.5,0.1,0.8,0.2,1.2,0.4c0.3,0.2,0.5,0.5,0.8,0.9
		c0.2,0.4,0.3,0.8,0.3,1.3c0,0.8-0.3,1.4-0.8,2c-0.5,0.5-1.4,0.8-2.7,0.8h-2.4v3.7L22.9,104.9L22.9,104.9z M24.1,100h2.4
		c0.8,0,1.3-0.1,1.7-0.4c0.4-0.3,0.5-0.7,0.5-1.2c0-0.4-0.1-0.8-0.3-1c-0.2-0.3-0.5-0.5-0.8-0.5c-0.2-0.1-0.6-0.1-1.2-0.1H24
		C24.1,96.8,24.1,100,24.1,100z"/>
	<path class="st5" d="M31.6,104.9v-9.3h4.1c0.8,0,1.4,0.1,1.9,0.3c0.4,0.1,0.8,0.5,1,0.9c0.3,0.4,0.4,0.9,0.4,1.3
		c0,0.7-0.2,1.2-0.6,1.6c-0.4,0.5-1.1,0.8-2,0.9c0.3,0.1,0.5,0.3,0.8,0.5c0.3,0.3,0.7,0.8,1,1.2l1.6,2.5h-1.6l-1.2-1.9
		c-0.3-0.5-0.7-1-0.9-1.3s-0.4-0.5-0.6-0.6c-0.2-0.1-0.3-0.2-0.5-0.3c-0.1,0-0.3-0.1-0.7-0.1h-1.4v4.1L31.6,104.9L31.6,104.9z
		 M32.8,99.7h2.6c0.5,0,1-0.1,1.3-0.2s0.5-0.3,0.8-0.5c0.1-0.3,0.3-0.5,0.3-0.8c0-0.4-0.1-0.8-0.5-1.1c-0.3-0.3-0.8-0.4-1.5-0.4
		h-2.9L32.8,99.7L32.8,99.7z"/>
	<path class="st5" d="M40.5,100.4c0-1.6,0.4-2.7,1.2-3.6s1.9-1.3,3.2-1.3c0.9,0,1.6,0.2,2.3,0.6s1.2,1,1.6,1.7s0.5,1.6,0.5,2.5
		s-0.2,1.8-0.5,2.5c-0.3,0.8-0.9,1.3-1.6,1.7c-0.7,0.4-1.4,0.5-2.3,0.5c-0.9,0-1.6-0.2-2.3-0.6s-1.2-1-1.6-1.7
		C40.7,102.1,40.5,101.2,40.5,100.4z M41.8,100.4c0,1.1,0.3,2,0.9,2.6c0.6,0.7,1.3,1,2.3,1s1.7-0.3,2.3-1s0.9-1.6,0.9-2.8
		c0-0.8-0.1-1.4-0.4-2c-0.3-0.5-0.6-1-1.1-1.3s-1-0.5-1.6-0.5c-0.9,0-1.6,0.3-2.3,0.9C42.1,98,41.8,99,41.8,100.4z"/>
</g>
</svg>
