<?xml version="1.0" encoding="utf-8"?>
<!-- Generator: Adobe Illustrator 24.1.2, SVG Export Plug-In . SVG Version: 6.00 Build 0)  -->
<svg version="1.1" id="Слой_1" xmlns="http://www.w3.org/2000/svg" xmlns:xlink="http://www.w3.org/1999/xlink" x="0px" y="0px"
	 viewBox="0 0 200 200" style="enable-background:new 0 0 200 200;" xml:space="preserve">
<style type="text/css">
	.st0{fill:#29A1DC;}
	.st1{fill:#85A1AA;}
	.st2{fill:#FFFFFF;}
	.st3{fill:none;}
</style>
<circle class="st0" cx="99.6" cy="101" r="64.4"/>
<path class="st1" d="M95.5,107.8c0-10.1,7.8-18.8,18.9-21.1l0.4-0.1l-0.2-0.3c-5.2-8.3-15.2-13.5-25.9-13.5
	c-16.3,0-29.6,11.8-29.6,26.3c0,7.1,3.1,13.7,8.8,18.7c0.2,0.1,0.1,0.3,0.1,0.4c-0.5,1.8-2.3,6.4-8.3,11.1c-0.1,0.1-0.2,0.3-0.1,0.4
	l0,0.1l0.1,0.1c0.7,0.4,1.9,0.6,3.3,0.6c2.6,0,8.6-0.7,19.2-5.6c0,0,0.1,0,0.2,0h0.1c2.1,0.4,4.1,0.6,6.2,0.6
	c4.5,0,8.9-0.9,12.9-2.7l0.4-0.2l-0.3-0.3C97.7,118.3,95.5,113.2,95.5,107.8z M75.6,103.7c-2.3,0-4.2-1.9-4.2-4.2
	c0-2.3,1.9-4.2,4.2-4.2l0,0c2.3,0,4.2,1.9,4.2,4.2C79.9,101.8,78,103.7,75.6,103.7z M84.5,99.5c0-2.3,1.9-4.2,4.2-4.2
	c2.3,0,4.2,1.9,4.2,4.2c0,2.3-1.9,4.2-4.2,4.2C86.4,103.7,84.5,101.8,84.5,99.5z"/>
<path class="st2" d="M93.8,106c0-10.1,7.8-18.8,18.9-21.1l0.4-0.1l-0.2-0.3C107.6,76.1,97.7,71,87,71c-16.3,0-29.6,11.8-29.6,26.3
	c0,7.1,3.1,13.7,8.8,18.7c0.2,0.1,0.1,0.3,0.1,0.4c-0.5,1.8-2.3,6.4-8.3,11.1c-0.1,0.1-0.2,0.3-0.1,0.4l0,0.1L58,128
	c0.7,0.4,1.9,0.6,3.3,0.6c2.6,0,8.6-0.7,19.2-5.6c0,0,0.1,0,0.2,0h0.1c2.1,0.4,4.1,0.6,6.2,0.6c4.5,0,8.9-0.9,12.9-2.7l0.4-0.2
	l-0.3-0.3C96,116.5,93.8,111.3,93.8,106z M73.9,101.9c-2.3,0-4.2-1.9-4.2-4.2s1.9-4.2,4.2-4.2l0,0c2.3,0,4.2,1.9,4.2,4.2
	C78.1,100,76.2,101.9,73.9,101.9z M82.8,97.6c0-2.3,1.9-4.2,4.2-4.2c2.3,0,4.2,1.9,4.2,4.2c0,2.3-1.9,4.2-4.2,4.2
	C84.7,101.9,82.8,100,82.8,97.6z"/>
<path class="st1" d="M135.7,123.4c0-0.1,0-0.3,0.1-0.4c4.5-3.9,7-9.2,7-14.9c0-11.5-10.6-20.9-23.6-20.9c-1.5,0-3,0.1-4.5,0.4
	c-11.1,1.9-19.2,10.5-19.2,20.5c0,11.6,10.6,21,23.6,21c1.7,0,3.3-0.2,5-0.5c0,0,0.1,0,0.2,0c8.1,3.7,12.9,4.5,15.4,4.5
	c1.5,0,2.3-0.3,2.5-0.4l0.4-0.2l-0.4-0.3C137.5,128.6,136.1,124.8,135.7,123.4z M108.7,104.7c1.9,0,3.5,1.5,3.5,3.5
	c0,1.9-1.5,3.5-3.5,3.5c0,0,0,0,0,0c-1.9,0-3.5-1.6-3.5-3.5C105.3,106.3,106.8,104.7,108.7,104.7z M119.2,111.6
	c-1.9,0-3.5-1.5-3.5-3.5c0-1.9,1.5-3.5,3.5-3.5c1.9,0,3.5,1.5,3.5,3.5C122.6,110.1,121.1,111.6,119.2,111.6z M129.6,104.7
	c1.9,0,3.5,1.5,3.5,3.5c0,1.9-1.5,3.5-3.5,3.5c0,0,0,0,0,0c-1.9,0-3.5-1.6-3.5-3.5C126.2,106.3,127.7,104.7,129.6,104.7z"/>
<path class="st2" d="M134.7,121.3c0-0.1,0-0.3,0.1-0.4c4.5-3.9,7-9.2,7-14.9c0-11.5-10.6-20.9-23.6-20.9c-1.5,0-3,0.1-4.5,0.4
	C102.7,87.3,94.6,96,94.6,106c0,11.6,10.6,21,23.6,21c1.7,0,3.3-0.2,5-0.5c0,0,0.1,0,0.2,0c8.1,3.7,12.9,4.5,15.4,4.5
	c1.5,0,2.3-0.3,2.5-0.4l0.4-0.2l-0.4-0.3C136.6,126.5,135.1,122.7,134.7,121.3z M107.8,102.6c1.9,0,3.5,1.5,3.5,3.5
	c0,1.9-1.5,3.5-3.5,3.5c0,0,0,0,0,0c-1.9,0-3.5-1.6-3.5-3.5C104.3,104.2,105.9,102.6,107.8,102.6z M118.2,109.5
	c-1.9,0-3.5-1.5-3.5-3.5c0-1.9,1.5-3.5,3.5-3.5c1.9,0,3.5,1.5,3.5,3.5C121.7,108,120.1,109.5,118.2,109.5z M128.7,102.6
	c1.9,0,3.5,1.5,3.5,3.5s-1.5,3.5-3.5,3.5c0,0,0,0,0,0c-1.9,0-3.5-1.6-3.5-3.5C125.2,104.2,126.8,102.6,128.7,102.6z"/>
<path class="st3" d="M99.6,36.6c35.6,0,64.4,28.8,64.4,64.4s-28.8,64.4-64.4,64.4S35.2,136.6,35.2,101S64,36.6,99.6,36.6z"/>
</svg>
