<?xml version="1.0" encoding="utf-8"?>
<!-- Generator: Adobe Illustrator 24.1.2, SVG Export Plug-In . SVG Version: 6.00 Build 0)  -->
<svg version="1.1" id="Слой_1" xmlns="http://www.w3.org/2000/svg" xmlns:xlink="http://www.w3.org/1999/xlink" x="0px" y="0px"
	 viewBox="0 0 90.1 45.6" style="enable-background:new 0 0 90.1 45.6;" xml:space="preserve">
<style type="text/css">
	.st0{fill:#2A3673;}
	.st1{enable-background:new    ;}
	.st2{fill:#FFFFFF;}
</style>
<g>
	<path class="st0" d="M85.3,45.6H4.9c-2.6,0-4.9-2.1-4.9-4.9V4.9C0,2.3,2.1,0,4.9,0h80.4c2.6,0,4.9,2.1,4.9,4.9v35.8
		C90.1,43.5,87.9,45.6,85.3,45.6z"/>
</g>
<g class="st1">
	<path class="st2" d="M16.7,32.8V10.7H25c1.5,0,2.6,0,3.4,0.2c1.1,0.2,1.9,0.5,2.8,1c0.8,0.5,1.3,1.3,1.8,2.1c0.5,1,0.6,1.9,0.6,3.1
		c0,1.9-0.6,3.4-1.8,4.7c-1.1,1.3-3.4,1.9-6.5,1.9h-5.7v8.9L16.7,32.8L16.7,32.8z M19.6,21.2h5.7c1.9,0,3.2-0.3,4.1-1
		s1.1-1.6,1.1-2.9c0-1-0.2-1.8-0.6-2.4c-0.5-0.6-1.1-1.1-1.8-1.3c-0.5-0.2-1.5-0.2-2.8-0.2h-5.7C19.6,13.4,19.6,21.2,19.6,21.2z"/>
	<path class="st2" d="M37.3,32.8V10.7H47c1.9,0,3.4,0.2,4.5,0.6c1,0.3,1.8,1.1,2.4,2.1c0.6,1,1,2.1,1,3.2c0,1.6-0.5,2.9-1.5,3.9
		c-1,1.1-2.6,1.8-4.7,2.1c0.8,0.3,1.3,0.8,1.8,1.1c0.8,0.8,1.6,1.8,2.4,2.9l3.9,6H53l-2.9-4.5c-0.8-1.3-1.6-2.3-2.1-3.1
		c-0.5-0.6-1-1.1-1.5-1.5c-0.5-0.3-0.8-0.5-1.3-0.6c-0.3,0-0.8-0.2-1.6-0.2h-3.4v9.7L37.3,32.8L37.3,32.8z M40.2,20.4h6.3
		c1.3,0,2.4-0.2,3.1-0.5c0.8-0.3,1.3-0.6,1.8-1.3c0.3-0.6,0.6-1.3,0.6-1.9c0-1-0.3-1.9-1.1-2.6c-0.8-0.6-1.9-1-3.6-1h-7L40.2,20.4
		L40.2,20.4z"/>
	<path class="st2" d="M58.5,22.1c0-3.7,1-6.5,2.9-8.6s4.5-3.1,7.6-3.1c2.1,0,3.9,0.5,5.5,1.5s2.9,2.3,3.7,4.1c0.8,1.8,1.3,3.7,1.3,6
		s-0.5,4.2-1.3,6s-2.1,3.1-3.9,4.1c-1.6,1-3.4,1.3-5.4,1.3c-2.1,0-3.9-0.5-5.5-1.5s-2.9-2.4-3.7-4.1C59,26.1,58.5,24,58.5,22.1z
		 M61.6,22.1c0,2.6,0.6,4.7,2.1,6.3c1.5,1.6,3.2,2.3,5.4,2.3c2.3,0,4.1-0.8,5.4-2.3c1.5-1.6,2.1-3.7,2.1-6.6c0-1.8-0.3-3.4-1-4.7
		S74.1,14.7,73,14c-1.1-0.8-2.4-1.1-3.9-1.1c-2.1,0-3.9,0.6-5.4,2.1C62.3,16.4,61.6,18.8,61.6,22.1z"/>
</g>
</svg>
