<?xml version="1.0" encoding="utf-8"?>
<!-- Generator: Adobe Illustrator 24.1.2, SVG Export Plug-In . SVG Version: 6.00 Build 0)  -->
<svg version="1.1" id="Слой_1" xmlns="http://www.w3.org/2000/svg" xmlns:xlink="http://www.w3.org/1999/xlink" x="0px" y="0px"
	 viewBox="0 0 200 200" style="enable-background:new 0 0 200 200;" xml:space="preserve">
<style type="text/css">
	.st0{fill:#29A1DC;}
	.st1{fill:#85A1AA;}
	.st2{fill:none;}
	.st3{fill:#ABE3FF;}
	.st4{fill:#FFFFFF;}
	.st5{fill:#99D0EB;}
</style>
<circle class="st0" cx="99.6" cy="101" r="64.4"/>
<path class="st1" d="M118.6,73.2H82.3c-7.1,0-12.9,5.8-12.9,12.9S75.2,99,82.3,99h36.3c7.1,0,12.9-5.8,12.9-12.9
	S125.7,73.2,118.6,73.2z M118.4,97.3c-6.2,0-11.2-5-11.2-11.2s5-11.2,11.2-11.2c6.2,0,11.2,5,11.2,11.2S124.6,97.3,118.4,97.3z"/>
<path class="st2" d="M99.6,36.6c35.6,0,64.4,28.8,64.4,64.4s-28.8,64.4-64.4,64.4S35.2,136.6,35.2,101S64,36.6,99.6,36.6z"/>
<path class="st3" d="M117.7,71.6H81.5c-7.1,0-12.9,5.8-12.9,12.9s5.8,12.9,12.9,12.9h36.3c7.1,0,12.9-5.8,12.9-12.9
	S124.8,71.6,117.7,71.6z M117.6,95.7c-6.2,0-11.2-5-11.2-11.2s5-11.2,11.2-11.2c6.2,0,11.2,5,11.2,11.2S123.7,95.7,117.6,95.7z"/>
<path class="st0" d="M117.6,73.2c-6.2,0-11.2,5-11.2,11.2s5,11.2,11.2,11.2c6.2,0,11.2-5,11.2-11.2S123.7,73.2,117.6,73.2z
	 M117.6,94.7c-5.6,0-10.2-4.6-10.2-10.2s4.6-10.2,10.2-10.2s10.2,4.6,10.2,10.2S123.2,94.7,117.6,94.7z"/>
<path class="st4" d="M127.8,84.4c0,5.6-4.6,10.2-10.2,10.2s-10.2-4.6-10.2-10.2s4.6-10.2,10.2-10.2S127.8,78.8,127.8,84.4z"/>
<path class="st1" d="M118.6,106.3H82.3c-7.1,0-12.9,5.8-12.9,12.9s5.8,12.9,12.9,12.9h36.3c7.1,0,12.9-5.8,12.9-12.9
	S125.7,106.3,118.6,106.3z M82.5,130.4c-6.2,0-11.2-5-11.2-11.2s5-11.2,11.2-11.2s11.2,5,11.2,11.2S88.7,130.4,82.5,130.4z"/>
<path class="st5" d="M117.7,104.7H81.5c-7.1,0-12.9,5.8-12.9,12.9s5.8,12.9,12.9,12.9h36.3c7.1,0,12.9-5.8,12.9-12.9
	S124.8,104.7,117.7,104.7z M81.7,128.8c-6.2,0-11.2-5-11.2-11.2s5-11.2,11.2-11.2c6.2,0,11.2,5,11.2,11.2S87.8,128.8,81.7,128.8z"/>
<path class="st0" d="M81.7,106.3c-6.2,0-11.2,5-11.2,11.2s5,11.2,11.2,11.2c6.2,0,11.2-5,11.2-11.2S87.8,106.3,81.7,106.3z
	 M81.7,127.8c-5.6,0-10.2-4.6-10.2-10.2s4.6-10.2,10.2-10.2c5.6,0,10.2,4.6,10.2,10.2S87.3,127.8,81.7,127.8z"/>
<path class="st4" d="M91.9,117.5c0,5.6-4.6,10.2-10.2,10.2s-10.2-4.6-10.2-10.2c0-5.7,4.6-10.2,10.2-10.2S91.9,111.9,91.9,117.5z"/>
</svg>
